<svg xmlns="http://www.w3.org/2000/svg" viewBox="0 0 359.13 358.79">
  <g stroke-miterlimit="10" data-paper-data="{&quot;isPaintingLayer&quot;:true}" style="mix-blend-mode:normal">
    <path fill="#2f2f2f" d="M25.94 178.5c0-84.27 68.31-152.58 152.58-152.58S331.1 94.23 331.1 178.5s-68.3 152.58-152.58 152.58S25.94 262.77 25.94 178.5"/>
    <path fill="#9a804f" d="M178.59 0h3.01c3.23 0 6.44.08 9.66.37l.85.07a5.4 5.4 0 0 1 3 .99c.67.95.94 1.74 1.22 2.87l.33 1.27.34 1.37 1.13 4.43a388 388 0 0 0 1.76 6.65l1.62 6.04c.25 1.06.25 1.06.25 2.14l1.1.14a133 133 0 0 1 31.53 8.46c1.02.4 1.9.7 2.99.7 1.23-.53 2.04-1.4 2.95-2.35l.53-.55q1.49-1.53 2.87-3.15c1.53-1.77 3.2-3.4 4.88-5.04a62 62 0 0 0 4.05-4.38c.97-1.04 1.67-1.64 3.1-1.88 2.01.1 3.8 1.17 5.57 2.06l1.2.59a134 134 0 0 1 17.53 10.4l1.05.7c.96.96.97 1.54 1.1 2.88-.18 1.02-.18 1.02-.49 2.1l-.34 1.22-.38 1.31-.58 2.06-.83 2.88-2.19 7.7a28 28 0 0 0-1.28 6.68 4.7 4.7 0 0 0 1.77 1.83l.55.46q.8.65 1.62 1.29.7.6 1.4 1.23l.7.6q4.12 3.64 8.02 7.53l.71.7a93 93 0 0 1 6.2 6.96l.82 1c.74.93.74.93 1.24 1.67.44.68.44.68 1.28 1.4a25 25 0 0 0 6.02-1.25l8.34-2.54q2.4-.73 4.8-1.5l.98-.31 1.85-.6c2.07-.65 2.07-.65 3.37-.34 6.25 3.92 13.23 19.16 15.31 26 .1.92.1.92-.28 1.58l-.61.64-.7.74-.82.82-.9.93a247 247 0 0 1-4 4.05l-.98.99-.9.9c-.73.64-.73.64-1.44.64l-.72 1.43h-.71l-.28.64c-.49.88-1 1.34-1.78 1.97q-.77.65-1.52 1.32l-.6.53a7 7 0 0 0-1.54 1.97c.03 1.2.48 2.16.96 3.24l.75 1.92.4 1c3.58 9.14 5.33 18.92 7.18 28.52l5.52 1.63q4.45 1.3 8.94 2.48l.84.22 5.5 1.41 1.3.33a9 9 0 0 1 2.93 1.44c.7 2.03.92 4.12 1.12 6.26l.09.97c.33 3.9.31 7.8.22 11.72l-.02.87a68 68 0 0 1-1.41 11.29 53 53 0 0 1-5.17 1.49l-7.73 1.92-4.1 1.02-8.03 2-.15.88-.92 5.42c-1.7 9.92-4.74 19.32-8.22 28.74 2.29 2.7 4.7 5.28 7.4 7.57 1.73 1.49 3.32 3.14 4.92 4.76 1.4 1.4 2.8 2.75 4.33 4 .5.47.5.47 1.22 1.54-.1 1.81-.58 3.19-1.39 4.8l-.32.64-1.04 2.05-.36.71c-9.13 18.05-9.13 18.05-12.62 19.33-.74-.08-.74-.08-1.57-.32l-.97-.29-1.08-.33-1.14-.33q-1.3-.37-2.62-.77a1271 1271 0 0 0-11.56-3.38l-1.9-.55-.89-.27-.82-.24-.72-.2a4 4 0 0 0-2.11.25c-.57.5-.57.5-1.06 1.17l-.6.75-.62.8a164 164 0 0 1-11.55 12.6l-.93.95a77 77 0 0 1-6.7 5.9c-1.78 1.33-1.78 1.33-2.85 3.21.14.87.14.87.43 1.83l.32 1.13.35 1.22.35 1.26 2.26 8 1.65 5.87.92 3.37a3.7 3.7 0 0 1-.2 2.35c-.76.67-.76.67-1.74 1.36l-1.09.75a177 177 0 0 1-5.1 3.32l-1.12.7a182 182 0 0 1-12.05 6.74l-.8.41c-3.45 1.77-3.45 1.77-4.8 1.65a4.4 4.4 0 0 1-2.27-1.7v-.72l-.63-.28a7 7 0 0 1-2.05-1.7l-.69-.74-.71-.79-1.41-1.52-.67-.73a45 45 0 0 0-1.7-1.7c-.72-.76-.72-.76-.72-1.48l-.62-.25c-1-.57-1.58-1.26-2.33-2.14a39 39 0 0 0-4.55-4.4q-.43.14-.86.32a214 214 0 0 1-31.13 8.8l-.8.17c-1.8.36-1.8.36-2.6.36l-.12 1.35c-.24 2.1-.75 4.1-1.27 6.15l-.3 1.22-1.63 6.39-1.46 5.75q-.23.9-.4 1.83c-.17.77-.17.77-.55 1.98a6 6 0 0 1-2.86.94l-.85.1-.9.07-.96.1c-3.25.28-6.48.33-9.74.32h-2.93c-3.18 0-6.33-.1-9.5-.42l-.86-.08c-2.55-.29-2.55-.29-3.58-1.03-.4-.99-.4-.99-.72-2.26l-.18-.7-.97-3.91-.83-3.36a743 743 0 0 0-2.1-8.4l-.2-.8-.54-2.21-.31-1.28c-.22-1.03-.22-1.03-.22-2.1l-.6-.04a60 60 0 0 1-8.23-1.4l-.75-.16a160 160 0 0 1-22.23-6.52l-.93-.34-.8-.31a4.4 4.4 0 0 0-2.57.19q-.75.87-1.43 1.78h-.72l-.23.59c-.66 1.15-1.57 1.99-2.52 2.9a65 65 0 0 0-4.11 4.37c-1.1 1.24-2.3 2.39-3.5 3.55-.74.69-.74.69-1.08 1.46h-.71l-.25.63a6 6 0 0 1-2.26 2.23c-2.11-.22-3.96-1.32-5.85-2.23l-1.2-.58a117 117 0 0 1-16.19-9.34l-1.02-.7c-2.43-1.68-2.43-1.68-3.27-2.52-.1-2.57.72-5.1 1.45-7.53l.33-1.1 2.07-6.95.64-2.14.88-3.02.34-1.16.32-1.15.3-1.05c.19-.92.19-.92-.22-1.68a10 10 0 0 0-1.68-1.64l-.59-.53a70 70 0 0 0-2.96-2.45 80 80 0 0 1-6.87-6.27l-.96-.97q-2.7-2.7-5.2-5.62l-2.4-2.75-.6-.69a99 99 0 0 1-3.08-3.71q-3.65.8-7.23 1.84l-1.13.33-13.44 3.87-1.05.31-.93.28a5 5 0 0 1-2.68-.2c-.62-.72-1.1-1.38-1.6-2.18l-.46-.71c-2-3.17-3.8-6.45-5.62-9.73q-.72-1.28-1.45-2.53c-1.44-2.49-2.76-5-3.96-7.61l-.39-.82a6.4 6.4 0 0 1-.78-3.15 7 7 0 0 1 1.37-2.16l.57-.65c.52-.49.52-.49 1.24-.49v-.71c.53-.53.53-.53 1.26-1.13 2.34-2 4.53-4.15 6.72-6.31l1.62-1.57q1.17-1.13 2.33-2.28l.74-.7c1.4-1.37 1.4-1.37 1.63-3.28l-.36-1.18-.23-.77-.26-.67-.3-.77-.32-.83A133 133 0 0 1 28.8 214l-.3-1.34c-.8-3.61-1.39-7.25-1.94-10.9l-.79-.2-17.02-4.23c-6.62-1.66-6.62-1.66-7.57-3.09-1.5-7.52-1.36-15.53-.78-23.15l.07-1.07c.39-4.49.39-4.49 1.42-6.17a10 10 0 0 1 2.86-1.07l.96-.26q1.66-.45 3.33-.86a423 423 0 0 0 14.54-3.98l1.25-.36c1.02-.26 1.02-.26 2.09-.26l.1-1.03c.99-9.95 3.76-19.6 7.12-28.99l.33-.91q.32-.9.67-1.79c.66-1.56.66-1.56.4-3.14a162 162 0 0 0-3.7-3.37 194 194 0 0 1-7.2-6.94l-3.89-3.86-.72-.7-.66-.66-.58-.58a3.6 3.6 0 0 1-.8-2.02c.9-3.04 2.56-5.92 4.04-8.73l.62-1.2a94 94 0 0 1 4.63-7.94l.51-.79a281 281 0 0 1 4.49-6.7c.97-.98 1.5-1 2.86-1.1 1.09.22 2.12.56 3.17.91l.92.3 2.93.97 3.81 1.24.95.3q3.4 1.11 6.82 2.16l.9.28c2.01.63 2.01.63 4.1.64.81-.72.81-.72 1.52-1.72l.84-1.08.86-1.13 1.7-2.1.75-.94c.8-.95 1.67-1.8 2.55-2.68l4.72-4.77a77 77 0 0 1 6.95-6.35q1.48-1.2 2.88-2.5l.9-.8.64-.6A253 253 0 0 0 79 42.36q-.5-1.86-1.03-3.7l-.2-.73-.58-1.97a7 7 0 0 1 .14-3.32c.56-.64.56-.64 1.32-1.18l.9-.64 1-.68 1.01-.7a148 148 0 0 1 17.09-9.62l.91-.46c1.69-.8 3.04-1.35 4.94-1.02.87.71.87.71 1.79 1.79l1.42 1.4 1.57 1.57.8.78a80 80 0 0 1 4.14 4.44q1.88 2.13 3.85 4.17l.82.9c1.6 1.7 1.6 1.7 3.8 2.21.73-.17.73-.17 1.48-.45l.89-.3q1.53-.58 3.04-1.18c8.2-3.15 16.57-5.05 25.16-6.85l.9-.19c1.1-.22 2.12-.42 3.26-.42l.11-1.2c.24-1.89.74-3.7 1.24-5.53l1.9-6.93 1.75-6.36.23-.82.57-2 .3-1.05c.33-.78.33-.78 1.4-1.5q1.48-.25 2.98-.4l.9-.08c3.26-.3 6.5-.34 9.78-.33m-54.06 62.3-.88.43A128 128 0 0 0 98.79 78.4l-1 .78a147 147 0 0 0-11.42 10.5l-.95.93a80 80 0 0 0-5.93 6.73L77.8 99.3c-4.64 5.59-8.38 11.75-11.91 18.08l-.5.89c-6.27 11.2-10.27 23.38-12.73 35.93l-.21 1.07-.6 3.02-.16.84c-1.14 6.34-1.29 12.69-1.27 19.11v4.1c0 6.87.53 13.46 1.8 20.21l.14.77a129 129 0 0 0 23.9 54.2l.51.7a94 94 0 0 0 6.75 7.93q1.13 1.2 2.19 2.46a66 66 0 0 0 8.86 8.5q1.33 1.06 2.61 2.2a96 96 0 0 0 9.11 6.82l.7.48c14.93 10.18 31.67 16.82 49.35 20.25l1 .2c7.16 1.36 14.27 1.74 21.55 1.72h1.28c7.06-.01 13.9-.37 20.86-1.56l1.31-.22a123 123 0 0 0 30.16-9.43l1.03-.47a127 127 0 0 0 32.22-20.98l.54-.49c4.1-3.64 8.15-7.45 11.56-11.77q1.04-1.32 2.15-2.57c4.55-5.25 8.3-11.03 11.84-17l.5-.8c4.2-7.1 7.2-14.73 9.88-22.5q.53-1.5 1.09-2.97a53 53 0 0 0 1.76-6.2l.28-1.17c1.58-6.85 2.6-13.7 3.3-20.7l.08-.77c3.09-31-7.19-64.97-26.75-89.05l-.5-.63-.6-.75c-.48-.68-.48-.68-.46-1.39.45-.96 1.05-1.52 1.82-2.24a54 54 0 0 0 3.54-3.76q1.06-1.2 2.17-2.36c3.74-3.91 3.74-3.91 5.03-8.96l.02-1.03a4 4 0 0 0-.8-2.4c-.76-.49-.76-.49-1.67-.82l-.9-.37c-3.06-.7-5.98 1.06-8.51 2.63-1.28.95-2.47 2-3.67 3.04a113 113 0 0 1-3.84 3.1l-.8.64-.74.58-.67.53c-.65.33-.65.33-1.4.24-.96-.38-1.56-.98-2.31-1.7a92 92 0 0 0-4.8-4.14q-1.13-.9-2.22-1.82c-7.85-6.53-16.8-11.85-26.03-16.2l-.82-.4a113 113 0 0 0-12.62-5.03q-1.38-.48-2.75-1c-29.71-10.85-65.8-7.05-93.93 6.43"/>
    <path fill="#b4a06a" d="M178.59 0h3.01c3.23 0 6.44.08 9.66.37l.85.07a5.4 5.4 0 0 1 3 .99c.67.95.94 1.74 1.22 2.87l.33 1.27.34 1.37 1.13 4.43a388 388 0 0 0 1.76 6.65l1.62 6.04c.25 1.06.25 1.06.25 2.14l1.1.14a133 133 0 0 1 31.53 8.46c1.02.4 1.9.7 2.99.7 1.23-.53 2.04-1.4 2.95-2.35l.53-.55q1.49-1.53 2.87-3.15c1.53-1.77 3.2-3.4 4.88-5.04a62 62 0 0 0 4.05-4.38c.97-1.04 1.67-1.64 3.1-1.88 2.01.1 3.8 1.17 5.57 2.06l1.2.59a134 134 0 0 1 17.53 10.4l1.05.7c.96.96.97 1.54 1.1 2.88-.18 1.02-.18 1.02-.49 2.1l-.34 1.22-.38 1.31-.58 2.06-.83 2.88-2.19 7.7a28 28 0 0 0-1.28 6.68 4.7 4.7 0 0 0 1.77 1.83l.55.46q.8.65 1.62 1.29.7.6 1.4 1.23l.7.6q4.12 3.64 8.02 7.53l.71.7a93 93 0 0 1 6.2 6.96l.82 1c.74.93.74.93 1.24 1.67.44.68.44.68 1.28 1.4a25 25 0 0 0 6.02-1.25l8.34-2.54q2.4-.73 4.8-1.5l.98-.31 1.85-.6c2.07-.65 2.07-.65 3.37-.34 6.25 3.92 13.23 19.16 15.31 26 .1.92.1.92-.28 1.58l-.61.64-.7.74-.82.82-.9.93a247 247 0 0 1-4 4.05l-.98.99-.9.9c-.73.64-.73.64-1.44.64l-.72 1.43h-.71l-.28.64c-.49.88-1 1.34-1.78 1.97q-.77.65-1.52 1.32l-.6.53a7 7 0 0 0-1.54 1.97c.03 1.2.48 2.16.96 3.24l.75 1.92.4 1c3.58 9.14 5.33 18.92 7.18 28.52l5.52 1.63q4.45 1.3 8.94 2.48l.84.22 5.5 1.41 1.3.33a9 9 0 0 1 2.93 1.44c.7 2.03.92 4.12 1.12 6.26l.09.97c.33 3.9.31 7.8.22 11.72l-.02.87a68 68 0 0 1-1.41 11.29 53 53 0 0 1-5.17 1.49l-7.73 1.92-4.1 1.02-8.03 2-.15.88-.92 5.42c-1.7 9.92-4.74 19.32-8.22 28.74 2.29 2.7 4.7 5.28 7.4 7.57 1.73 1.49 3.32 3.14 4.92 4.76 1.4 1.4 2.8 2.75 4.33 4 .5.47.5.47 1.22 1.54-.1 1.81-.58 3.19-1.39 4.8l-.32.64-1.04 2.05-.36.71c-9.13 18.05-9.13 18.05-12.62 19.33-.74-.08-.74-.08-1.57-.32l-.97-.29-1.08-.33-1.14-.33q-1.3-.37-2.62-.77a1271 1271 0 0 0-11.56-3.38l-1.9-.55-.89-.27-.82-.24-.72-.2a4 4 0 0 0-2.11.25c-.57.5-.57.5-1.06 1.17l-.6.75-.62.8a164 164 0 0 1-11.55 12.6l-.93.95a77 77 0 0 1-6.7 5.9c-1.78 1.33-1.78 1.33-2.85 3.21.14.87.14.87.43 1.83l.32 1.13.35 1.22.35 1.26 2.26 8 1.65 5.87.92 3.37a3.7 3.7 0 0 1-.2 2.35c-.76.67-.76.67-1.74 1.36l-1.09.75a177 177 0 0 1-5.1 3.32l-1.12.7a182 182 0 0 1-12.05 6.74l-.8.41c-3.45 1.77-3.45 1.77-4.8 1.65a4.4 4.4 0 0 1-2.27-1.7v-.72l-.63-.28a7 7 0 0 1-2.05-1.7l-.69-.74-.71-.79-1.41-1.52-.67-.73a45 45 0 0 0-1.7-1.7c-.72-.76-.72-.76-.72-1.48l-.62-.25c-1-.57-1.58-1.26-2.33-2.14a39 39 0 0 0-4.55-4.4q-.43.14-.86.32a214 214 0 0 1-31.13 8.8l-.8.17c-1.8.36-1.8.36-2.6.36l-.12 1.35c-.24 2.1-.75 4.1-1.27 6.15l-.3 1.22-1.63 6.39-1.46 5.75q-.23.9-.4 1.83c-.17.77-.17.77-.55 1.98a6 6 0 0 1-2.86.94l-.85.1-.9.07-.96.1c-3.25.28-6.48.33-9.74.32h-2.93c-3.18 0-6.33-.1-9.5-.42l-.86-.08c-2.55-.29-2.55-.29-3.58-1.03-.4-.99-.4-.99-.72-2.26l-.18-.7-.97-3.91-.83-3.36a743 743 0 0 0-2.1-8.4l-.2-.8-.54-2.21-.31-1.28c-.22-1.03-.22-1.03-.22-2.1l-.6-.04a60 60 0 0 1-8.23-1.4l-.75-.16a160 160 0 0 1-22.23-6.52l-.93-.34-.8-.31a4.4 4.4 0 0 0-2.57.19q-.75.87-1.43 1.78h-.72l-.23.59c-.66 1.15-1.57 1.99-2.52 2.9a65 65 0 0 0-4.11 4.37c-1.1 1.24-2.3 2.39-3.5 3.55-.74.69-.74.69-1.08 1.46h-.71l-.25.63a6 6 0 0 1-2.26 2.23c-2.11-.22-3.96-1.32-5.85-2.23l-1.2-.58a117 117 0 0 1-16.19-9.34l-1.02-.7c-2.43-1.68-2.43-1.68-3.27-2.52-.1-2.57.72-5.1 1.45-7.53l.33-1.1 2.07-6.95.64-2.14.88-3.02.34-1.16.32-1.15.3-1.05c.19-.92.19-.92-.22-1.68a10 10 0 0 0-1.68-1.64l-.59-.53a70 70 0 0 0-2.96-2.45 80 80 0 0 1-6.87-6.27l-.96-.97q-2.7-2.7-5.2-5.62l-2.4-2.75-.6-.69a99 99 0 0 1-3.08-3.71q-3.65.8-7.23 1.84l-1.13.33-13.44 3.87-1.05.31-.93.28a5 5 0 0 1-2.68-.2c-.62-.72-1.1-1.38-1.6-2.18l-.46-.71c-2-3.17-3.8-6.45-5.62-9.73q-.72-1.28-1.45-2.53c-1.44-2.49-2.76-5-3.96-7.61l-.39-.82a6.4 6.4 0 0 1-.78-3.15 7 7 0 0 1 1.37-2.16l.57-.65c.52-.49.52-.49 1.24-.49v-.71c.53-.53.53-.53 1.26-1.13 2.34-2 4.53-4.15 6.72-6.31l1.62-1.57q1.17-1.13 2.33-2.28l.74-.7c1.4-1.37 1.4-1.37 1.63-3.28l-.36-1.18-.23-.77-.26-.67-.3-.77-.32-.83A133 133 0 0 1 28.8 214l-.3-1.34c-.8-3.61-1.39-7.25-1.94-10.9l-.79-.2-17.02-4.23c-6.62-1.66-6.62-1.66-7.57-3.09-1.5-7.52-1.36-15.53-.78-23.15l.07-1.07c.39-4.49.39-4.49 1.42-6.17a10 10 0 0 1 2.86-1.07l.96-.26q1.66-.45 3.33-.86a423 423 0 0 0 14.54-3.98l1.25-.36c1.02-.26 1.02-.26 2.09-.26l.1-1.03c.99-9.95 3.76-19.6 7.12-28.99l.33-.91q.32-.9.67-1.79c.66-1.56.66-1.56.4-3.14a162 162 0 0 0-3.7-3.37 194 194 0 0 1-7.2-6.94l-3.89-3.86-.72-.7-.66-.66-.58-.58a3.6 3.6 0 0 1-.8-2.02c.9-3.04 2.56-5.92 4.04-8.73l.62-1.2a94 94 0 0 1 4.63-7.94l.51-.79a281 281 0 0 1 4.49-6.7c.97-.98 1.5-1 2.86-1.1 1.09.22 2.12.56 3.17.91l.92.3 2.93.97 3.81 1.24.95.3q3.4 1.11 6.82 2.16l.9.28c2.01.63 2.01.63 4.1.64.81-.72.81-.72 1.52-1.72l.84-1.08.86-1.13 1.7-2.1.75-.94c.8-.95 1.67-1.8 2.55-2.68l4.72-4.77a77 77 0 0 1 6.95-6.35q1.48-1.2 2.88-2.5l.9-.8.64-.6A253 253 0 0 0 79 42.36q-.5-1.86-1.03-3.7l-.2-.73-.58-1.97a7 7 0 0 1 .14-3.32c.56-.64.56-.64 1.32-1.18l.9-.64 1-.68 1.01-.7a148 148 0 0 1 17.09-9.62l.91-.46c1.69-.8 3.04-1.35 4.94-1.02.87.71.87.71 1.79 1.79l1.42 1.4 1.57 1.57.8.78a80 80 0 0 1 4.14 4.44q1.88 2.13 3.85 4.17l.82.9c1.6 1.7 1.6 1.7 3.8 2.21.73-.17.73-.17 1.48-.45l.89-.3q1.53-.58 3.04-1.18c8.2-3.15 16.57-5.05 25.16-6.85l.9-.19c1.1-.22 2.12-.42 3.26-.42l.11-1.2c.24-1.89.74-3.7 1.24-5.53l1.9-6.93 1.75-6.36.23-.82.57-2 .3-1.05c.33-.78.33-.78 1.4-1.5q1.48-.25 2.98-.4l.9-.08c3.26-.3 6.5-.34 9.78-.33m-11.5 4.39a90 90 0 0 0-2.15 7.66q-.75 3.34-1.74 6.63a87 87 0 0 0-.92 3.53l-.28 1.12-.53 2.22-.26 1.03-.22.92a5 5 0 0 1-1.77 2.27c-.93.3-.93.3-1.98.47l-1.2.2-1.26.2-2.65.46-1.32.23a109 109 0 0 0-20.19 5.6l-4.36 1.7-1.15.45-1.12.43-1 .4c-1.07.26-1.7.19-2.74-.13-3.35-2.22-6.35-5.81-8.94-8.87-1.17-1.29-2.41-2.49-3.65-3.71a65 65 0 0 1-4.21-4.58c-1.37.22-2.47.63-3.72 1.25l-1.13.56-1.2.6-1.25.63a137 137 0 0 0-14.87 8.76c.26 2.4.9 4.67 1.55 7l.34 1.26q.85 3.15 1.76 6.29l.32 1.13.73 2.48q.58 1.98 1.02 4l.27 1.06a5 5 0 0 1-.27 2.88c-2.04 2.67-5 4.67-7.63 6.7-1.49 1.27-2.84 2.66-4.2 4.05a36 36 0 0 1-3.54 3.2q-.58.6-1.12 1.24a99 99 0 0 1-2.82 3.16 94 94 0 0 0-5.36 6.32c-1.65 2.12-1.65 2.12-2.86 2.5-2.39.22-4.33-.52-6.56-1.32l-3.46-1.18c-2.11-.71-4.25-1.32-6.4-1.93l-2.4-.74-.83-.25-1.58-.5c-1.92-.6-1.92-.6-3.8-.16a18 18 0 0 0-1.87 2.7l-.52.84q-2.5 4.05-4.75 8.26l-.55 1.02-1.78 3.34-.57 1.07-.53 1.02-.48.9c-.4.91-.65 1.68-.74 2.66.72 1 .72 1 1.77 1.92l1.01.97q1.24 1.14 2.52 2.22c1.94 1.7 3.72 3.54 5.53 5.38 1.5 1.5 3 2.95 4.64 4.31.88.82 1.6 1.53 1.84 2.73a14 14 0 0 1-1.38 5.76 116 116 0 0 0-7.52 29.08l-.15 1.14-.13 1.01c-.34 1.14-.77 1.6-1.7 2.33-.8.36-.8.36-1.71.61l-1.03.3-1.1.3-1.15.32c-3.36.94-6.74 1.78-10.13 2.61l-1.03.26-2 .49-2.71.7-.82.2c-1.38.32-1.38.32-2.33 1.3-.83 2.18-.7 4.71-.7 7.03v4.42c0 4.44.1 8.85.4 13.28q5.4 1.45 10.81 2.78l1.03.25 8.18 2.01c4.61 1.15 4.61 1.15 5.73 2.82.15.7.15.7.25 1.5l.12.9.12.98c1.32 9.81 3.84 19.2 7.4 28.43l.28.74.77 1.99a10 10 0 0 1 .35 3.72c-.66.98-.66.98-1.6 1.94l-.53.54-1.8 1.8-1.44 1.47c-2.09 2.12-4.19 4.2-6.44 6.16a97 97 0 0 0-3.23 2.92q-.3.29-.64.58c-1 .97-1.46 1.45-1.57 2.88.5 2.03 1.67 3.87 2.68 5.68l.68 1.24c3.95 7.25 3.95 7.25 8.53 14.12 2.27-.25 4.38-.87 6.57-1.52l1.15-.35 3.36-1q4.84-1.45 9.72-2.79l.86-.24c2.95-.78 2.95-.78 4.44-.54.8.72.8.72 1.54 1.72l.83 1.09.85 1.12a60 60 0 0 0 5.6 6.3q1.02 1.05 1.97 2.17a94 94 0 0 0 4.74 4.96l.87.88a98 98 0 0 0 5.4 5l2.76 2.5c.78.73.78.73 1.64 1.15.74.78.72 1.06.75 2.12-.08 1.7-.45 3.26-.94 4.89l-.25.85q-.82 2.77-1.77 5.5c-.85 2.61-1.57 5.26-2.3 7.9q-.22.78-.48 1.55c-.42 1.32-.63 2.26-.12 3.57.63.65.63.65 1.48 1.16l.99.65 1.1.7 1.15.7c2.78 1.72 5.63 3.33 8.46 4.95l1.05.6c3.74 2.38 3.74 2.38 7.94 3.04.9-.64.9-.64 1.73-1.54l.97-.99 2-2.06q2.42-2.46 4.68-5.07c1.26-1.42 2.61-2.74 3.96-4.08l.88-.89.83-.83.76-.76c.7-.64 1.06-.94 2.01-.94 2.06.21 3.81.73 5.73 1.5l2.72 1.03a133 133 0 0 0 21.7 5.79q2.42.5 4.86.88c1.32.23 2.47.5 3.66 1.17.94 1.45 1.14 2.95 1.43 4.64l.56 2.09c1.66 5.93 3 11.95 4.44 17.94 7.7 2.02 17.58 1.04 25.39 0 .87-2.17 1.43-4.3 1.92-6.57q.9-4.19 2.08-8.3a164 164 0 0 0 1.75-6.82c.75-2.81.75-2.81 1.68-3.37.8-.33 1.5-.5 2.36-.65l.93-.16 1-.17a129 129 0 0 0 18.59-4.46q1.91-.59 3.85-1.12a58 58 0 0 0 7.22-2.62 9 9 0 0 1 5.1-.8c.85.58 1.44 1.06 2.14 1.79l.55.54 1.1 1.1 1.32 1.3a62 62 0 0 1 3.84 4.15c1.13 1.25 2.34 2.42 3.54 3.6.73.75.73.75 1.09 1.46h.71l.23.58c.7 1.21 1.63 2.03 2.63 3a31 31 0 0 0 6.62-2.89l3.75-2.12.84-.47a154 154 0 0 0 10.6-6.68c-.15-3.13-.97-5.99-1.84-8.97l-1.41-4.94-1.12-3.9-.33-1.18-.54-1.83c-.97-3.35-.97-3.35-.48-4.92 1.38-1.65 3.08-2.91 4.77-4.22a87 87 0 0 0 7.69-7.09q1.02-1.04 2.06-2.07c2.15-2.15 4.27-4.3 6.22-6.64l.51-.6a273 273 0 0 0 4.12-5c1.37-1.82 1.37-1.82 2.48-2.05.9.06 1.68.26 2.54.5l1.15.28c4.57 1.15 9.09 2.58 13.59 3.99l3.28 1.02 1 .31.87.28c.95.22 1.67.32 2.64.2.62-.56.62-.56 1.08-1.37l.58-.92.62-1.02.64-1.05c3.02-4.95 5.84-10.1 8.34-15.33l.34-.73c.24-.84.15-1.3-.16-2.1q-.71-.38-1.43-.72l-.27-.61c-.65-1.19-1.62-1.97-2.62-2.86l-1.26-1.15-.63-.56a66 66 0 0 1-2.3-2.26q-1.44-1.46-2.98-2.8a39 39 0 0 1-4.96-4.96l-.45-.55c-.9-2.37.88-5.38 1.72-7.56 3.22-8.5 5.33-17.12 6.95-26.03l.2-1.06q.45-2.5.88-5.02a277 277 0 0 1 17.07-4.74l1.05-.26a119 119 0 0 1 6.55-1.44c1.33-4.24 1.13-8.8 1.11-13.22v-2.36c.14-4.97.14-4.97-.76-9.8-1.03-.48-1.03-.48-2.32-.86l-.72-.23c-2.54-.8-5.1-1.45-7.69-2.08-3.77-.94-7.55-1.89-11.28-3.02l-.81-.23c-1.73-.55-1.73-.55-2.25-1.35a13 13 0 0 1-.67-2.82l-.2-1.22-.2-1.33a157 157 0 0 0-8.26-29.98 6.7 6.7 0 0 1-.28-3.71c.65-.84 1.35-1.45 2.15-2.15v-.71l.58-.23c1.19-.69 2.08-1.63 3.04-2.6q.3-.33.63-.64l3.31-3.35 2.46-2.48.54-.55 1.5-1.5c.81-.81.81-.81 1.84-1.66.88-.88.88-.88.73-2.04-.32-1.72-1.12-3.2-1.92-4.75l-.48-.95a136 136 0 0 0-8.66-14.3l-.71-1.06c-1.97.22-3.77.68-5.65 1.27l-.92.28-5.53 1.7-7.6 2.34c-2.03.61-3.95.94-6.04.48-1.2-.9-1.99-2-2.86-3.21l-1.19-1.19c-1.19-1.37-1.47-2.94-1.84-4.69-.15-.9-.15-.9-.55-1.63l-1.94-.54c-3.58-1.3-5.84-4.24-8.41-6.94a38 38 0 0 0-3.8-3.29 59 59 0 0 1-5.87-5.32l-.36-.36c-.1-2.03.14-3.73.74-5.67l.5-1.7.26-.92q.8-2.85 1.54-5.7 1.23-4.67 2.74-9.26c.37-1.1.37-1.1.3-2.49-.9-.67-1.77-1.23-2.75-1.79l-.87-.51-1.86-1.08-2.79-1.64a150 150 0 0 0-9.8-5.3l-.97-.49-.9-.43-.78-.38c-.74-.25-.74-.25-1.48.09-1.04.69-1.89 1.57-2.76 2.46l-.58.59a72 72 0 0 0-3.48 3.81c-1 1.12-2.07 2.16-3.14 3.21q-1.44 1.43-2.76 2.98-1.23 1.43-2.57 2.77l-.63.63c-1.62.84-3.26.67-4.99.18l-5.3-2.06-1.18-.45c-9.03-3.4-18.36-5.42-27.84-7.07-.87-.17-.87-.17-1.94-.53l-.24-1.36c-.87-4.31-2.12-8.55-3.35-12.77q-.56-2.09-1.08-4.19c-.58-3.6-.58-3.6-2.12-6.7-3.73-.53-7.56-.41-11.31-.4h-3.07c-3.45 0-6.86.05-10.3.4"/>
    <path fill="#8d6749" d="m207.12 171.7.5.52c.74.72 1.28.8 2.3.97l1 .18 3.1.53.93.16c.75.15.75.15 1.47.5v9.66l-4.01 1.11-1.62.46c-.8.22-.8.22-2.18.45-1.43.61-1.68 1.19-2.24 2.59l-.3.82q-.15.4-.33.8c-.63 1.66-1.03 3.07-.76 4.86a22 22 0 0 0 1.8 2.9c1.75 2.48 1.75 2.48 1.82 3.75a11 11 0 0 1-2.33 3.04l-2 2.1-.54.7c-.54.38-.54.38-1.56.34a10 10 0 0 1-3.11-1.53l-.99-.65q-.94-.63-1.84-1.28c-1.4-.67-2.35-.33-3.77.17-3.76 1.32-3.76 1.32-6.39 4.06-.25.82-.25.82-.4 1.77l-.3 1.38q-.3 1.44-.55 2.89c-.22 1.1-.22 1.1-.58 1.45q-1.03.04-2.07.03h-2.6l-1.34-.01-3.29-.02-.36-1.32-1.2-4.31c-.22-.8-.22-.8-.43-2.16-.78-1.77-2.12-2.18-3.84-2.91l-.92-.44c-2.08-.93-2.08-.93-4.33-1.02-.75.36-.75.36-1.44.88l-.79.54-1.62 1.15-.79.54-.7.5c-1 .44-1.5.32-2.52-.03-.7-.53-.7-.53-1.35-1.21l-.72-.73-.73-.77-.75-.77-1.82-1.88c.4-1.12.9-2.12 1.5-3.13l1.36-2.22c.76-1.28 1.08-1.96 1.04-3.48-.28-1.04-.6-1.99-1.04-2.97a14 14 0 0 1-1.07-4.3l-1.12-.2-5.76-1.08-.96-.19-.84-.16c-.61-.15-.61-.15-.97-.5q-.04-1.08-.04-2.15v-1.32l.02-1.39v-1.39l.02-3.41 2.5-.72.86-.27c1.57-.34 2.42-.26 3.83.58q1.51 1.15 2.95 2.41 1.36 1.13 2.8 2.15l1.05.8q1.02.76 2.05 1.5c1.64 1.23 2.77 2.09 3.35 4.13a18.2 18.2 0 0 0 9.2 11.07 19.2 19.2 0 0 0 13.6.98c5.34-1.9 8.8-5.11 11.53-10.07a20 20 0 0 0 1.78-7.13c.4-1.71 1.47-2.52 2.77-3.64l.73-.64 1.45-1.25q.97-.89 1.87-1.85c.96-.91.96-.91 2.03-.91"/>
    <path fill="#8c684a" d="M174.59 142.75h9.65c1 2.31 1.43 4.23 1.84 6.67.35 1.4.35 1.4 1.38 2.27a48 48 0 0 0 3.39 1.71l.9.43a20 20 0 0 1-4.11 3.98l-1.2.9-1.13.84-.82.81c-1.43.92-2.76.84-4.43.85-2.84.04-2.84.04-5.58.71-1.63.37-2.66-.27-4-1.12l-1.36-.9c-2.5-1.64-5.22-2.96-7.88-4.32l-1.18-.63-1.07-.55c-.9-.6-1.2-1-1.56-2 1.07-.71 1.07-.71 1.9-.66 1.55.5 2.8 1.42 4.16 2.3 1.5.7 2.37.46 3.9-.09q1.05-.41 2.1-.85c2.5-1.06 2.5-1.06 3.3-1.06l.13-.67q.78-4.32 1.67-8.62"/>
    <path fill="#b39e66" d="M248.24 115.58c2.5 1.72 4.52 3.83 5.36 6.8.45 3.3-.06 6.16-1.92 8.94a11 11 0 0 1-6.3 3.92c-3.23.24-3.23.24-4.68-.25a7 7 0 0 0-2.47-.46c-1.2.63-2.04 1.54-2.95 2.52l-.8.8-2.33 2.4-3.05 3.06a47 47 0 0 1-2.96 2.77 81 81 0 0 0-4.72 4.53 88 88 0 0 1-5.35 5.08c-1.38 1.22-2.65 2.55-3.94 3.86a88 88 0 0 1-5.39 5.11c-1.18 1.04-2.27 2.17-3.37 3.3-2.8 2.82-2.8 2.82-4.18 4l-.63.55q-.9.78-1.83 1.54c-2.12 1.85-3.4 3.14-3.7 6.06l-.1 1.36a13 13 0 0 1-4.4 8.47c-3.52 2.83-6.94 3.67-11.44 3.22a14.5 14.5 0 0 1-6.8-3.58l-.58-.53c-2.57-2.63-3.52-6.13-3.55-9.72.07-3.68 1.19-6.76 3.78-9.4a38 38 0 0 1 3.57-2.51l.92-.59a7 7 0 0 1 3.93-.84c4.43.03 6.86-.45 10.17-3.58q1.31-1.07 2.66-2.12l1.37-1.1q2.97-2.36 5.98-4.64a556 556 0 0 0 10.96-8.56q3.76-3.04 7.64-5.92 2.81-2.11 5.55-4.34a191 191 0 0 1 4.96-3.89 31 31 0 0 1 2.7-1.92 9 9 0 0 0 2.51-2.19c.26-1.37.3-2.65.3-4.04.13-2.74 1.41-4.6 3.35-6.46 3.55-2.91 7.53-3.64 11.73-1.65"/>
    <path fill="#b49e66" d="m116.67 138.46 4.16.17c4.46.2 4.46.2 5.78 1.57.43.76.43.76.7 1.46.58.96 1.2 1.27 2.18 1.82l2.26 1.24 1.22.67q4.87 2.65 9.8 5.18 3.52 1.84 7.01 3.73 3.97 2.14 7.96 4.2l.7.37 3.36 1.72a97 97 0 0 1 7.07 3.97 4 4 0 0 1-1.5 2c-2.92 2.48-4.62 6.08-5.3 9.8-1.86-.57-3.2-1.75-4.69-2.95q-3.41-2.7-6.93-5.28-3.34-2.45-6.61-5-3.65-2.85-7.39-5.58a199 199 0 0 1-4.6-3.45l-1-.78-1.89-1.48c-2.42-1.88-4.89-3.57-7.96-4.06-1.18-.24-1.42-.33-2.3-1.23-1.25-2.69-2.14-5.1-2.03-8.1"/>
    <path fill="#b39d65" d="M287.56 80.54c.25.63.25.63.36 1.43-.4.64-.4.64-1.03 1.3l-.7.75-.77.81-1.61 1.79-.83.92a343 343 0 0 0-5.56 6.36l-.62.71q-1.68 1.95-3.43 3.85a98 98 0 0 0-4.04 4.76c-.7.9-1.08 1.42-1.02 2.59.46 1.25.79 2 1.74 2.97 1.32.25 2.6.12 3.93 0l1.29-.08 3.36-.27c2.85 6 2.85 6 2.5 8.58-.6.64-.6.64-1.43 1.23l-.88.66c-.9.61-.9.61-1.76 1-.96.51-1.4.84-2 1.76a11.3 11.3 0 0 0 0 6.79c1.27 1.62 3.16 2.4 5 3.22l1.07.71c-.16 3.05-1.13 5.73-2.15 8.58l-.77-.06c-4.94-.63-4.94-.63-9.4.85-1.12 1.49-1.66 2.47-1.56 4.36.37 1.62.9 3.15 1.46 4.7.87 2.47.87 2.47.62 3.74-.7.67-.7.67-1.63 1.27l-.99.64-.95.59-.74.49c-.88.57-1.53.95-2.6.9-1.28-.43-2.17-1.22-3.17-2.1-1.55-1.56-1.55-1.56-3.55-2.13l-1.81.18-1 .16-1.31.2c-1.31.4-1.31.4-1.8 1.73q-.22.75-.4 1.5l-.21.75-.58 2.25-.71 2.86h-8.58a59 59 0 0 1-1.68-5.85c-.42-1.64-.42-1.64-1.44-2.9a10 10 0 0 0-2.24-.54l-.77-.33a4.6 4.6 0 0 0-2.45-.39c-1.12.7-2.05 1.49-3.01 2.39-.87.78-1.67 1.37-2.71 1.9a5 5 0 0 1-2.86-1.07c.17-1.55 1.08-2.28 2.17-3.33l.54-.53a68 68 0 0 1 3.66-3.3q.96-.88 1.83-1.82l.57-.6 1.1-1.2c.52-.56.52-.56 1.57-1.38 1.36.03 2.48.47 3.75.92a23 23 0 0 0 17.45-2.26 23 23 0 0 0 9.9-13.67 22.7 22.7 0 0 0-3.21-17.16c-3.5-4.75-8.5-8.25-14.4-9.2-5.74-.61-11.41.45-16.2 3.85-4.45 3.61-8 8.45-8.73 14.29q.02 1.69.13 3.39c.3 5.33.3 5.33-.99 6.8a19 19 0 0 1-3.32 2.18c-1.65.99-3.13 2.21-4.65 3.38l-1.84 1.37-.79.6c-1.67 1.22-1.67 1.22-2.5 1.25-1.14-.62-1.32-1.75-1.68-2.93l-.24-.7c-.5-1.57-.93-3-.57-4.62 1.04-.8 2.22-1.32 3.4-1.9 2.24-1.21 2.24-1.21 3.79-3.16a8.6 8.6 0 0 0-.4-5.66 13 13 0 0 0-4.29-3.22l-2.14-1.43c.32-2.8.84-5.7 2.14-8.23l.78.07c4.94.63 4.94.63 9.4-.85 1.12-1.49 1.65-2.48 1.57-4.36-.34-1.43-.82-2.7-1.4-4.04-.6-1.4-1.05-2.47-1.05-4.04.53-.53.53-.53 1.27-1l.8-.53.86-.53.83-.55c2.38-1.51 2.38-1.51 4.1-1.33.9.67.9.67 1.8 1.55a14 14 0 0 0 3.57 2.74c1.04-.03 1.86-.13 2.86-.35l.81-.13c.93-.2 1.6-.42 2.4-.95.66-1.27.86-2.57 1.08-3.97l.4-2.17.16-.98c.15-.74.15-.74.51-1.1a38 38 0 0 1 2-.03h2.49l1.29.01 3.16.02a32 32 0 0 1 1.34 4.58 13 13 0 0 0 1.16 3.64 9.6 9.6 0 0 0 4.3 1.43l.87.14c1.36-.2 2.23-1 3.26-1.86l.6-.49a72 72 0 0 0 2.47-2.04c.66-.4.66-.4 1.39-.34.97.42 1.69 1.04 2.5 1.71 1.03.56 1.69.54 2.85.38.8-.5 1.45-.98 2.16-1.59l1.24-1 .63-.5q1.39-1.06 2.85-2.03 4.92-3.35 9.5-7.17c.93-.7 1.43-.7 2.56-.58"/>
    <path fill="#b39d66" d="M118.93 112.32h2.25l1.23.02h1.24l3.03.02.86 4.25.19.92q.07.4.17.84c.22.82.47 1.49.92 2.21 1.12.58 1.12.58 2.44 1q.65.25 1.33.48c1.74.43 2.52.23 4.08-.63l2.19-1.38c1.1-.57 1.62-.78 2.83-.54.91.65.91.65 1.81 1.52l1.77 1.7.85.7c.58.73.58.73.58 1.54-.57 1.56-1.41 2.96-2.25 4.4-.77 1.25-.77 1.25-.85 2.67q.66 1.88 1.37 3.75c.3.88.3.88.3 1.6 2.26.64 4.51 1.21 6.83 1.63.68.15.68.15 1.04.51.12 1.3.11 2.6.13 3.89l.04 1.1c.01 1 0 1.9-.17 2.88-.84.76-.84.76-1.8 1.07l-1.06.36c-2.23.22-3.45-.36-5.28-1.48l-1.5-.88-.74-.44a85 85 0 0 0-3-1.67c-1.6-.86-1.6-.86-2-1.25l-.42-2.28c-.8-3.79-2.56-7.44-5.76-9.75a16 16 0 0 0-9.35-2.79l-.9.01c-2.28.06-4.1.4-6.1 1.58l-.83.47a16 16 0 0 0-7.14 9.5 17.2 17.2 0 0 0 1.79 11.93 17 17 0 0 0 9.93 7.3c2.94.38 6.03.5 8.76-.76a4.7 4.7 0 0 1 2.87.16c.92.65.92.65 1.88 1.52a74 74 0 0 0 5.9 4.6l.88.63 2.07 1.47-.36 1.43c-1.55-.2-2.45-.75-3.7-1.65-1.51-.98-1.51-.98-3.25-1.32l-1.27.47-1.06.32a10 10 0 0 0-3.23 1.83c-.79 1.76-1.09 3.46-1.43 5.36l-.72 1.79h-8.22a25 25 0 0 1-1.37-5.9c-.53-1.58-1.12-1.92-2.56-2.68l-.78-.46-.68-.35-.68-.36a4.3 4.3 0 0 0-2.51-.26c-1.21.67-2.3 1.51-3.42 2.33l-.7.5-.62.45c-.62.3-.62.3-1.34.22-1.33-.53-2.28-1.54-3.33-2.5l-.71-.61c-1.66-1.52-1.66-1.52-1.74-2.9.66-1.69 1.68-3.08 2.7-4.57.87-1.73.4-2.71-.16-4.5l-.45-1.2-.44-1.23c-.43-1-.43-1-1.12-1.47-1.17-.36-2.35-.6-3.55-.81-2.55-.47-2.55-.47-3.36-.88l-.02-4.26v-1.23l-.01-1.17V140c.03-.83.03-.83.4-1.18q.86-.2 1.75-.35l1.07-.2 1.13-.2 1.13-.2 2.78-.48.13-.67.19-.87.18-.86c.21-.82.21-.82.82-1.98.57-1.21.49-1.5.1-2.77-.57-1.17-1.23-2.3-1.88-3.42-1-1.77-1-1.77-.87-2.69.38-1 1.03-1.57 1.8-2.32l.84-.83.83-.75.71-.66c.72-.42.72-.42 1.55-.4 1.5.53 2.79 1.38 4.12 2.23.96.59 1.62.98 2.77.92l.86-.3 1.01-.35 1.03-.4c1.82-.69 1.82-.69 2.61-.69l.13-.9c1.09-7.3 1.09-7.3 2.49-7.36"/>
    <path fill="#8d7646" d="M182.59 173.9c1.48 1.06 2.87 2.48 3.44 4.24a7.6 7.6 0 0 1-1.43 5.72c-1.46 1.5-2.63 2.2-4.72 2.26-1.98-.02-3-.35-4.58-1.54-1.82-2.01-1.9-3.34-1.89-6a4.8 4.8 0 0 1 1.53-3.3l.74-.82c1.8-1.57 4.78-1.27 6.9-.56"/>
    <path fill="#8c7646" d="M246 120.47c1.2.85 1.72 1.26 2.24 2.62a7.4 7.4 0 0 1-.45 4.24c-1.12 1.36-1.9 1.87-3.64 2.12-1.34.1-2.26.1-3.42-.64-2.13-2.17-2.13-2.17-2.17-3.56.17-2.14.6-3.18 2.17-4.67 1.61-1.18 3.55-1 5.27-.1"/>
    <path fill="#b58260" d="M231.95 159.5c.91.41.91.41 1.47 1.55q.47 1.48.84 2.99l.35 1.34.3 1.3c.55 1.34.96 1.54 2.24 2.17.95.19.95.19 1.94.22l1.11.07 1.15.07c2.73.14 5.06.45 7.6 1.43l1.49.5c.35.1.35.1.7.23l.7.23 1.41.47 1.06.35c.38 1.52.4 3 .4 4.55v.78l-.02 4.15-.02 4.11c-2.77 1.38-5.59 2.06-8.61 2.7-.99.23-1.9.47-2.83.87-.64.93-.64.93-.71 2.15l-.36 1.63-.54 2.7c-.46 2.3-.46 2.3-.94 3.41a6 6 0 0 0-.3 3.34c.69.83 1.3 1.43 2.11 2.1l1.28 1.12.64.55q1.29 1.1 2.53 2.29l.8.72c.5.73.5.73.5 1.52-.95 2.63-2.51 5.04-3.94 7.43l-.4.69q-.51.85-1.07 1.68l-.6.93c-.96.78-1.66.81-2.88.74a20 20 0 0 1-3.67-.95l-.73-.24a67 67 0 0 1-3.22-1.14 3.8 3.8 0 0 0-2.8.08c-.7.59-.7.59-1.27 1.34l-.65.79q-.65.82-1.27 1.65a30 30 0 0 1-4.52 4.09c-.63.71-.63.71-.43 1.78.34 2.04 1.04 3.99 1.68 5.95.54 1.74 1 3.3.74 5.14-1.8 2.16-5.01 3.51-7.46 4.85l-.9.49c-2.07 1.1-2.07 1.1-3.36 1.1-3.42-1.56-6.18-5.48-8.66-8.23l-1.3.45a114 114 0 0 1-6.72 1.94l-1.28.35c-3.12.84-3.12.84-3.93.84l-.14.77-.91 4.74c-.44 2.2-.94 4.22-1.8 6.28-2.51.48-5.02.41-7.56.4h-3.88c-1-.04-1.9-.17-2.87-.4l-1-3.5-.29-.99-.28-.99-.3-1c-.27-1.02-.27-1.02-.44-2.1a8 8 0 0 0-.9-2.86 12 12 0 0 0-4.18-1.43l-2.29-.56-1.1-.25a19 19 0 0 1-2.61-.89c-1.35-.47-1.73-.53-3.05-.08-.9.73-.9.73-1.75 1.69l-.98 1.02-1.51 1.63-1.48 1.57-.89.95c-.9.64-.9.64-2 .6-.84-.25-1.6-.5-2.37-.87l-.7-.35-.73-.37-.75-.38c-2.3-1.2-4.66-2.58-6.5-4.42.03-2.5.62-4.87 1.27-7.26.85-2.6.85-2.6.87-5.26-.7-.76-1.35-1.4-2.13-2.05l-1.27-1.13-.64-.56a61 61 0 0 1-2.49-2.38l-.76-.76c-.58-.62-.58-.62-.94-1.34-2.76.07-5.23.67-7.86 1.5-1.42.45-2.8.8-4.3 1a88 88 0 0 1-5-7.64l-.41-.7c-.84-1.5-1.47-2.78-1.37-4.53a14 14 0 0 1 2.48-2.68l.74-.71a44 44 0 0 1 4.6-3.9c.5-.59.5-.59.34-1.53q-.63-2.47-1.4-4.9a41 41 0 0 1-1.3-5.83c-.6-1.08-1.3-1.3-2.44-1.67-2.07-.54-4.16-.95-6.26-1.37l-1.07-.22-.98-.2c-.8-.23-.8-.23-1.5-.94a35 35 0 0 1-.07-3.65l.03-4.45.03-4.41 1.72-.87.96-.48c1.74-.85 2.93-1.36 4.83-.8.73 2 1.25 3.95 1.6 6.06.14.8.14.8.9 1.45 2.33.53 4.72.44 7.1.44l3.89.03 1.38.01a5 5 0 0 0 3-1.2c.49-.92.49-.92.72-1.78h.72l.01.8c.34 15.22 4.67 27.46 15.5 38.3 5.18 4.9 11.48 8.1 18.18 10.37l1.07.36c4.36 1.42 8.58 1.8 13.14 1.78h.79a45 45 0 0 0 12.44-1.56l.8-.22c11.69-3.17 22.1-11.52 28.16-21.95a54 54 0 0 0 5.16-13.48q.26-1.04.57-2.06c1.9-7.03.75-14.53-.88-21.47a35 35 0 0 1-.56-3.39l1-.75 1.28-.99.66-.5c2.69-2.06 2.69-2.06 3.3-2.1"/>
    <path fill="#b48360" d="m184.28 104.23.95.05c1.08.3 1.28.7 1.87 1.64q.4 1.15.72 2.32l.37 1.35 1.15 4.17.33 1.24c.2.9.2.9.65 1.3q1.23.25 2.48.48c4.19.83 6.98 1.84 10.39 4.52l1.8 1.35 2.49 1.87c-.5 1.2-1 1.73-2.1 2.41l-.82.52-2.53 1.58-.76.47c-.57.34-.57.34-.94.74-.07 1.7.1 3.31.36 5l-.57-.21c-6.55-2.45-12.4-4.21-19.45-4.2h-2.41c-5.63-.03-11.21.9-16.42 3.1-2.24.95-4.1 1.71-6.56 1.31l-1.36-.22c-3.84-.69-3.84-.69-4.72-1.57-.36-2.2.43-3.38 1.6-5.2 1.01-1.61 1.91-3.22 1.62-5.16a22 22 0 0 0-1.92-2.24l-.59-.61c-1.99-2.06-4.04-4.14-6.43-5.73v-.72c.9-.63.9-.63 2.06-1.32l1.15-.7c1.08-.48 1.08-.48 1.8-.4a3.6 3.6 0 0 1 1.72 1.3l.54.64 1.13 1.37a87 87 0 0 1 3.76 4.83c2.5-.3 4.85-1.18 7.23-1.96 2.25-.7 4.36-1.13 6.71-1.26l.12-.63a91 91 0 0 1 1.7-7.08l.28-1.08.28-1.02.26-.92c.22-.7.22-.7.58-1.07a63 63 0 0 1 11.48-.26"/>
    <path fill="#595247" d="m178.77 55.04 4-.01c4.83-.02 9.48.22 14.24 1.06l2.31.37A117 117 0 0 1 230 65.52l.94.42a120 120 0 0 1 28.56 18.1q.69.54 1.4 1.05l.57.46v.71c-.79.74-1.68 1.35-2.55 1.99l-.72.55c-1.4 1.03-2.45 1.64-4.24 1.75-1.01-2.8-1.86-5.59-1.8-8.58l-1.3-.05c-5.7-.4-9.9-2.82-14.7-5.7-6.82-4.05-13.97-6.98-21.5-9.38q-1.17-.38-2.32-.78c-9.04-3.16-9.04-3.16-18.23-2.73a7.4 7.4 0 0 0-3.43 3.98 25 25 0 0 0-.44 5.11l-.11 10.94-.06 5.33-.1 10.44-.65-.06-2.94-.29-1.02-.1a54 54 0 0 0-16.14.8v-1.13a2605 2605 0 0 0-.1-16.17l-.04-7.33c.21-5.67.21-5.67-2.17-10.58-2.35-1.66-5.15-1.47-7.87-1.02l-1.64.33-.92.2a122.6 122.6 0 0 0-57.8 30.18q-1.2 1.1-2.46 2.15c-2.97 2.6-8.45 7.52-9.01 11.59-.07 2.35-.03 4.03 1.58 5.84a22 22 0 0 0 4.28 2.75l2.5 1.43c-.23 1.84-1.64 2.85-2.88 4.1-.73.84-.73.84-.89 1.74.3 1.43 1.03 2.55 1.79 3.8 1.97 3.23 1.97 3.23 1.98 5.02-1.14 1.47-2.86 1.73-4.58 2.24l-.96.3c-2.35.7-3.9.83-6.12-.31l-1.36-.78c-3.15-1.8-6.04-2.68-9.66-1.9-1.08.53-1.16.81-1.63 1.88l-.3.7a104 104 0 0 0-6.92 24.26 121 121 0 0 0-1.45 20.7v3.35a94 94 0 0 0 1.82 19.07c1.15 5.9 2.63 11.74 4.57 17.44l.3.84c.96 2.71 2.16 5.24 4.77 6.65 2.01.78 3.54.62 5.55-.15 4.7-2.16 9.08-5.08 13.47-7.77l1.28-.78c4.7-2.81 4.7-2.81 9.29-5.82.87-.55.87-.55 1.95-.55l.42 1.13a53 53 0 0 0 8.54 14.4c.69.92.69.92 1.05 1.99l-2.84 1.63-16.7 9.64c-4.88 2.52-4.88 2.52-8.7 6.25-.33 2.23-.4 4.38.86 6.32q.62.8 1.28 1.54l.72.84q1.22 1.39 2.5 2.74l.94 1.05a89 89 0 0 0 10.85 10.03l1.28 1.04c2.83 2.3 5.7 4.44 8.73 6.47l1.2.84c10.73 7.44 23 12.5 35.63 15.6l1.07.27c7.14 2.04 7.14 2.04 14.1.53a8 8 0 0 0 2.35-2.94q.06-1.5.07-2.97l.01-.93.05-5.16.06-5.57.05-5.68.11-11.15 2.38.26 2.22.3c1.85.23 3.7.2 5.57.2h1.05a110 110 0 0 0 7.48-.28l2.04-.12v1.13l.12 16.08a1070 1070 0 0 0 .08 10.1v.84a9.6 9.6 0 0 0 1.23 4.74c2.19 2.07 3.89 2.28 6.83 2.23 2.29-.14 4.48-.58 6.71-1.1l.74-.16c8.94-2 17.5-5.26 25.76-9.2l.82-.38c6.95-3.3 13.62-7.98 19.56-12.84l.97-.78c8.52-6.87 8.52-6.87 15.84-14.95l.72-.91c2.08-2.62 2.87-4.26 2.5-7.67-1.38-3.4-6.4-5.28-9.44-7.04l-1.12-.65q-4.12-2.4-8.27-4.75a222 222 0 0 1-6.37-3.77c-.9-.54-1.7-.98-2.7-1.31a16 16 0 0 1 2.46-4.25c3.06-4.3 5.55-9.1 7.56-13.99q1.63.8 3.17 1.8l1.03.65 1.12.7a434 434 0 0 0 11.68 7.06l3.14 1.9a257 257 0 0 0 4.1 2.43c1.95 1.07 3.57 1.65 5.79 1.2 1.66-.5 3.06-.98 4.02-2.5a45 45 0 0 0 2.93-7.54l.42-1.33c2.3-7.42 3.84-14.88 4.78-22.6l.1-.75c.53-4.35.75-8.64.73-13.01v-.94c-.02-5.41-.36-10.7-1.18-16.05l-.2-1.28a121 121 0 0 0-5.62-22.64l-.75-2.22a13.3 13.3 0 0 0-5.23-7.1l-1.27-1q-1.67-1.3-3.38-2.58c1.3-2.86 4.68-4.6 7.15-6.44l-.22-.89-1.2-4.83c1.55 1.32 2.32 2.98 3.23 4.76l.52 1 1.6 3.18.51 1c13.31 26.33 17.02 57.98 9.5 86.6l-.24.95c-.73 2.74-1.59 5.43-2.48 8.12l-.24.7q-1.95 5.92-4.53 11.57l-1.04 2.35c-3.89 8.73-9.36 16.85-15.42 24.21l-.49.6a203 203 0 0 1-3.44 4.05l-.91 1.04a117 117 0 0 1-20.54 17.9l-.66.47c-11.59 8.16-24.42 13.76-37.96 17.77l-.73.22c-30.81 9.18-65.05 3.37-92.94-11.66q-3.28-1.86-6.43-3.93l-.71-.46c-6.16-3.93-11.71-8.64-17.17-13.49l-.88-.77a81 81 0 0 1-7.7-7.8l-.85-.98a124 124 0 0 1-15.6-22.98l-.35-.66a116 116 0 0 1-11.47-32.54l-.13-.73a135 135 0 0 1-2.44-26.23c0-5.4.36-10.65 1.17-16l.15-1.03c1.18-8.04 3.15-16 5.92-23.63l.24-.66a119 119 0 0 1 18.36-32.95l.86-1.1a137 137 0 0 1 5.57-6.4l.88-1c2.56-2.86 5.3-5.48 8.13-8.07l1.6-1.5c8-7.43 17.83-13.34 27.63-18.04l2.25-1.12c10.8-5.4 22.98-8.78 34.95-10.32l.7-.1a120 120 0 0 1 15.28-.73"/>
  </g>
</svg>
